<?xml version="1.0" encoding="UTF-8" standalone="no"?>
<!-- Created with Inkscape (http://www.inkscape.org/) -->

<svg
   xmlns:dc="http://purl.org/dc/elements/1.1/"
   xmlns:cc="http://creativecommons.org/ns#"
   xmlns:rdf="http://www.w3.org/1999/02/22-rdf-syntax-ns#"
   xmlns:svg="http://www.w3.org/2000/svg"
   xmlns="http://www.w3.org/2000/svg"
   xmlns:xlink="http://www.w3.org/1999/xlink"
   xmlns:sodipodi="http://sodipodi.sourceforge.net/DTD/sodipodi-0.dtd"
   xmlns:inkscape="http://www.inkscape.org/namespaces/inkscape"
   height="160.00000"
   id="Andysvg"
   inkscape:version="0.92.3 (2405546, 2018-03-11)"
   sodipodi:docname="networkLog4CPlus.svg"
   sodipodi:version="0.32"
   version="1.0"
   width="160.00000"
   x="0.00000000"
   y="0.00000000"
   inkscape:output_extension="org.inkscape.output.svg.inkscape"
   inkscape:export-filename="C:\Documents and Settings\All Users\Documents\Ubuntu Brig\Andy Fitzsimon\gnome-fs-network.png"
   inkscape:export-xdpi="90"
   inkscape:export-ydpi="90">
  <metadata
     id="metadata3">
    <rdf:RDF>
      <cc:Work
         rdf:about="">
        <dc:title></dc:title>
        <dc:description />
        <dc:subject>
          <rdf:Bag>
            <rdf:li>hash</rdf:li>
            <rdf:li />
            <rdf:li>filesystem</rdf:li>
            <rdf:li>computer</rdf:li>
            <rdf:li>icons</rdf:li>
          </rdf:Bag>
        </dc:subject>
        <dc:publisher>
          <cc:Agent
             rdf:about="http://www.openclipart.org">
            <dc:title>Andy Fitzsimon</dc:title>
          </cc:Agent>
        </dc:publisher>
        <dc:creator>
          <cc:Agent>
            <dc:title>Andy Fitzsimon</dc:title>
          </cc:Agent>
        </dc:creator>
        <dc:rights>
          <cc:Agent>
            <dc:title>Andy Fitzsimon</dc:title>
          </cc:Agent>
        </dc:rights>
        <dc:date />
        <dc:format>image/svg+xml</dc:format>
        <dc:type
           rdf:resource="http://purl.org/dc/dcmitype/StillImage" />
        <cc:license
           rdf:resource="http://web.resource.org/cc/PublicDomain" />
        <dc:language>en</dc:language>
      </cc:Work>
      <cc:License
         rdf:about="http://web.resource.org/cc/PublicDomain">
        <cc:permits
           rdf:resource="http://web.resource.org/cc/Reproduction" />
        <cc:permits
           rdf:resource="http://web.resource.org/cc/Distribution" />
        <cc:permits
           rdf:resource="http://web.resource.org/cc/DerivativeWorks" />
      </cc:License>
    </rdf:RDF>
  </metadata>
  <defs
     id="defs3">
    <inkscape:perspective
       sodipodi:type="inkscape:persp3d"
       inkscape:vp_x="0 : 80 : 1"
       inkscape:vp_y="0 : 1000 : 0"
       inkscape:vp_z="160 : 80 : 1"
       inkscape:persp3d-origin="80 : 53.333333 : 1"
       id="perspective97" />
    <linearGradient
       id="linearGradient4894">
      <stop
         id="stop4895"
         offset="0.0000000"
         style="stop-color: rgb(255, 255, 255); stop-opacity: 1;" />
      <stop
         id="stop4896"
         offset="0.47000000"
         style="stop-color: rgb(255, 255, 255); stop-opacity: 0.85567;" />
      <stop
         id="stop4897"
         offset="1.0000000"
         style="stop-color: rgb(255, 255, 255); stop-opacity: 0;" />
    </linearGradient>
    <linearGradient
       id="linearGradient1853">
      <stop
         id="stop1854"
         offset="0.0000000"
         style="stop-color: rgb(255, 255, 255); stop-opacity: 1;" />
      <stop
         id="stop1855"
         offset="0.47000000"
         style="stop-color: rgb(255, 255, 255); stop-opacity: 0.85567;" />
      <stop
         id="stop1856"
         offset="1.0000000"
         style="stop-color: rgb(255, 255, 255); stop-opacity: 0;" />
    </linearGradient>
    <linearGradient
       id="linearGradient1806">
      <stop
         id="stop1807"
         offset="0.0000000"
         style="stop-color: rgb(0, 0, 0); stop-opacity: 0.350515;" />
      <stop
         id="stop3276"
         offset="0.64999998"
         style="stop-color: rgb(0, 0, 0); stop-opacity: 0.134021;" />
      <stop
         id="stop1808"
         offset="1.0000000"
         style="stop-color: rgb(0, 0, 0); stop-opacity: 0;" />
    </linearGradient>
    <linearGradient
       id="linearGradient893">
      <stop
         id="stop895"
         offset="0"
         style="stop-color: rgb(0, 0, 0); stop-opacity: 1;" />
      <stop
         id="stop896"
         offset="1"
         style="stop-color: rgb(255, 255, 255); stop-opacity: 1;" />
    </linearGradient>
    <linearGradient
       id="linearGradient1317">
      <stop
         id="stop1318"
         offset="0.00000000"
         style="stop-color: rgb(0, 0, 0); stop-opacity: 0.528926;" />
      <stop
         id="stop1320"
         offset="0.50000000"
         style="stop-color: rgb(0, 0, 0); stop-opacity: 0.173554;" />
      <stop
         id="stop1319"
         offset="1.0000000"
         style="stop-color: rgb(0, 0, 0); stop-opacity: 0;" />
    </linearGradient>
    <linearGradient
       id="linearGradient1133">
      <stop
         id="stop1134"
         offset="0.00000000"
         style="stop-color: rgb(139, 183, 223); stop-opacity: 1;" />
      <stop
         id="stop1136"
         offset="0.76209301"
         style="stop-color: rgb(42, 96, 146); stop-opacity: 1;" />
      <stop
         id="stop1135"
         offset="1.0000000"
         style="stop-color: rgb(55, 94, 130); stop-opacity: 1;" />
    </linearGradient>
    <linearGradient
       id="linearGradient1098">
      <stop
         id="stop1099"
         offset="0.00000000"
         style="stop-color: rgb(255, 255, 255); stop-opacity: 1;" />
      <stop
         id="stop1101"
         offset="0.50000000"
         style="stop-color: rgb(255, 255, 255); stop-opacity: 0.22314;" />
      <stop
         id="stop1102"
         offset="0.59930235"
         style="stop-color: rgb(255, 255, 255); stop-opacity: 0;" />
      <stop
         id="stop1100"
         offset="1.0000000"
         style="stop-color: rgb(255, 255, 255); stop-opacity: 0.603306;" />
    </linearGradient>
    <linearGradient
       id="linearGradient902">
      <stop
         id="stop903"
         offset="0.00000000"
         style="stop-color: rgb(0, 0, 0); stop-opacity: 0;" />
      <stop
         id="stop904"
         offset="1.0000000"
         style="stop-color: rgb(0, 0, 0); stop-opacity: 0.22;" />
    </linearGradient>
    <linearGradient
       id="linearGradient892">
      <stop
         id="stop893"
         offset="0.0000000"
         style="stop-color: rgb(255, 255, 255); stop-opacity: 0;" />
      <stop
         id="stop894"
         offset="1"
         style="stop-color: rgb(255, 255, 255); stop-opacity: 1;" />
    </linearGradient>
    <linearGradient
       id="linearGradient888">
      <stop
         id="stop889"
         offset="0.0000000"
         style="stop-color: rgb(98, 98, 98); stop-opacity: 1;" />
      <stop
         id="stop890"
         offset="1"
         style="stop-color: rgb(255, 255, 255); stop-opacity: 1;" />
    </linearGradient>
    <linearGradient
       id="linearGradient891"
       x1="1.3485916"
       x2="0.024647888"
       xlink:href="#linearGradient888"
       y1="-0.85185188"
       y2="1.0899471" />
    <linearGradient
       id="linearGradient901"
       spreadMethod="pad"
       x1="1.5803921"
       x2="0.14117648"
       xlink:href="#linearGradient888"
       y1="2.4285715"
       y2="-0.38571429" />
    <linearGradient
       id="linearGradient905"
       x1="-1.5389611"
       x2="1.0909091"
       xlink:href="#linearGradient888"
       y1="2.7890625"
       y2="-0.19531250" />
    <radialGradient
       cx="0.10362694"
       cy="0.093750000"
       fx="0.10362694"
       fy="0.093750000"
       id="radialGradient1132"
       r="1.2958785"
       xlink:href="#linearGradient1133" />
    <linearGradient
       id="linearGradient1138"
       xlink:href="#linearGradient4894" />
    <linearGradient
       id="linearGradient1140"
       x1="0.54117650"
       x2="0.57647061"
       xlink:href="#linearGradient888"
       y1="-2.4210527"
       y2="4.6315789" />
    <linearGradient
       id="linearGradient1141"
       x1="1.8281938"
       x2="-0.0088105723"
       xlink:href="#linearGradient888"
       y1="3.0546875"
       y2="-0.44531250" />
    <linearGradient
       id="linearGradient1144"
       x1="0.21960784"
       x2="0.59607846"
       xlink:href="#linearGradient1853"
       y1="-11.111111"
       y2="5.2777777" />
    <linearGradient
       id="linearGradient1146"
       x1="0.51351351"
       x2="-0.076576576"
       xlink:href="#linearGradient892"
       y1="0.55468750"
       y2="1.1875000" />
    <linearGradient
       id="linearGradient1148"
       x1="0.23245615"
       x2="1.0789474"
       xlink:href="#linearGradient892"
       y1="0.15625000"
       y2="-0.64843750" />
    <linearGradient
       id="linearGradient1150"
       x1="0.25221238"
       x2="-0.57522124"
       xlink:href="#linearGradient892"
       y1="0.57812500"
       y2="1.4765625" />
    <linearGradient
       id="linearGradient1156"
       x1="0.48260871"
       x2="0.48260871"
       xlink:href="#linearGradient888"
       y1="-0.40000001"
       y2="1.8750000" />
    <linearGradient
       id="linearGradient1157"
       x1="1.5528169"
       x2="-1.2077465"
       xlink:href="#linearGradient888"
       y1="3.3265307"
       y2="-0.48979592" />
    <linearGradient
       id="linearGradient1166"
       x1="0.52941179"
       x2="0.57647061"
       xlink:href="#linearGradient1317"
       y1="-3.5714285"
       y2="4.6315789" />
    <linearGradient
       id="linearGradient1167"
       x1="1.6111112"
       x2="-0.083333336"
       xlink:href="#linearGradient888"
       y1="3.0703125"
       y2="0.046875000" />
    <linearGradient
       id="linearGradient1169"
       x1="1.4780220"
       x2="-0.13028169"
       xlink:href="#linearGradient893"
       y1="2.9218750"
       y2="-0.26732674" />
    <linearGradient
       gradientTransform="scale(0.998371, 1.00163)"
       id="linearGradient1170"
       x1="0.47284532"
       x2="0.48655096"
       xlink:href="#linearGradient902"
       y1="-0.016295359"
       y2="1.8378206" />
    <linearGradient
       id="linearGradient1171"
       x1="0.83050847"
       x2="0.56355929"
       xlink:href="#linearGradient902"
       y1="0.57812500"
       y2="0.36718750" />
    <radialGradient
       cx="0.088082902"
       cy="0.093750000"
       fx="0.090673581"
       fy="0.10937500"
       id="radialGradient1315"
       r="1.1765809"
       xlink:href="#linearGradient1133" />
    <radialGradient
       cx="0.50000000"
       cy="0.50000006"
       fx="0.50352114"
       fy="0.18269235"
       id="radialGradient1316"
       r="0.34964636"
       xlink:href="#linearGradient1317" />
    <linearGradient
       id="linearGradient1404"
       x1="0.53169012"
       x2="0.54577464"
       xlink:href="#linearGradient892"
       y1="0.28888890"
       y2="1.1000000" />
    <linearGradient
       gradientTransform="scale(0.997825, 1.00218)"
       id="linearGradient1505"
       x1="0.47157744"
       x2="0.48548824"
       xlink:href="#linearGradient902"
       y1="-0.024853170"
       y2="1.8570156" />
    <linearGradient
       gradientTransform="scale(0.995847, 1.00417)"
       id="linearGradient1506"
       x1="0.47042510"
       x2="0.48481107"
       xlink:href="#linearGradient902"
       y1="-0.043652620"
       y2="1.9025002" />
    <linearGradient
       gradientTransform="scale(0.997153, 1.00285)"
       id="linearGradient2740"
       x1="0.47041038"
       x2="0.48453596"
       xlink:href="#linearGradient902"
       y1="-0.033741195"
       y2="1.8771822" />
    <linearGradient
       id="linearGradient4283"
       x1="-0.77314812"
       x2="0.99074072"
       xlink:href="#linearGradient893"
       y1="2.0837989"
       y2="-0.033519555" />
    <linearGradient
       id="linearGradient4284"
       x1="-2.3960868e-17"
       x2="0.92957747"
       xlink:href="#linearGradient893"
       y1="3.3012049"
       y2="-0.45783132" />
    <radialGradient
       cx="0.50000000"
       cy="0.50000000"
       fx="0.50000000"
       fy="0.50000000"
       id="radialGradient1977"
       r="0.50000000"
       xlink:href="#linearGradient1853" />
  </defs>
  <sodipodi:namedview
     bordercolor="#666666"
     borderopacity="1.0"
     id="base"
     inkscape:cx="184.83422"
     inkscape:cy="-40.909401"
     inkscape:pageopacity="0.0"
     inkscape:pageshadow="2"
     inkscape:window-height="1391"
     inkscape:window-width="2560"
     inkscape:window-x="0"
     inkscape:window-y="25"
     inkscape:zoom="2"
     pagecolor="#ffffff"
     showborder="true"
     showgrid="false"
     inkscape:current-layer="Andysvg"
     inkscape:window-maximized="1" />
  <path
     d="M 26.564473,83.749649 L 26.564473,121.41271 L 57.756286,121.41271"
     id="path3723"
     sodipodi:nodetypes="ccc"
     style="fill: none; fill-rule: evenodd; stroke: rgb(156, 156, 156); stroke-width: 5.7185; stroke-linecap: round; stroke-linejoin: round;" />
  <g
     id="g2843"
     transform="matrix(0.999379, 0, 0, 0.999379, 0.00122789, 3.98651)">
    <rect
       height="8.3153667"
       id="rect1906"
       style="fill: url(#linearGradient1156) rgb(0, 0, 0); fill-opacity: 1; fill-rule: evenodd; stroke: url(#linearGradient1157) rgb(0, 0, 0); stroke-width: 1.44735pt;"
       transform="matrix(0.716224, 0, 0, 0.716224, -12.5705, -9.65283)"
       width="57.567924"
       x="33.326111"
       y="78.658051" />
    <rect
       height="60.126495"
       id="rect1907"
       rx="5.4369707"
       ry="5.4369707"
       style="fill: url(#linearGradient905) rgb(0, 0, 0); fill-opacity: 1; fill-rule: evenodd; stroke-width: 1.62827;"
       transform="matrix(0.716224, 0, 0, 0.716224, -12.5705, -9.65283)"
       width="72.279724"
       x="26.015469"
       y="22.413721" />
    <rect
       height="38.044163"
       id="rect1908"
       style="fill: url(#radialGradient1315) rgb(0, 0, 0); fill-rule: evenodd; stroke: url(#linearGradient891) rgb(0, 0, 0); stroke-width: 1.46495pt;"
       transform="matrix(0.716224, 0, 0, 0.716224, -12.5705, -9.65283)"
       width="58.178177"
       x="33.386066"
       y="31.695871" />
    <path
       d="M 27.690431,52.841444 L 27.370609,74.749236 C 27.319624,78.241665 29.310209,80.477938 32.807578,80.506029 L 72.625393,80.825852 L 76.463254,71.870840 L 32.008024,71.551020 L 31.688202,52.681533 L 27.690431,52.841444 z "
       id="path1909"
       sodipodi:nodetypes="czzccccc"
       style="fill: url(#linearGradient1146) rgb(0, 0, 0); fill-opacity: 1; fill-rule: evenodd; stroke-width: 1pt;"
       transform="matrix(0.716224, 0, 0, 0.716224, -12.5705, -9.65283)" />
    <rect
       height="26.147448"
       id="rect1913"
       rx="7.4449978"
       ry="7.4449978"
       style="fill: url(#linearGradient901) rgb(0, 0, 0); fill-opacity: 1; fill-rule: evenodd; stroke: url(#linearGradient1157) rgb(0, 0, 0); stroke-width: 2.3625;"
       transform="matrix(0.571582, 0, 0, 0.571582, -77.7257, 72.3554)"
       width="104.09673"
       x="140.62315"
       y="-34.316952" />
    <rect
       height="15.829688"
       id="rect1914"
       rx="3.7576280"
       ry="3.7576280"
       style="fill: url(#linearGradient901) rgb(0, 0, 0); fill-opacity: 1; fill-rule: evenodd; stroke: url(#linearGradient1157) rgb(0, 0, 0); stroke-width: 1.35914;"
       transform="matrix(0.571582, 0, 0, 0.571582, -77.7257, 72.3554)"
       width="56.908955"
       x="184.04552"
       y="-28.539845" />
    <rect
       height="15.829688"
       id="rect1915"
       rx="2.9970589"
       ry="2.9970589"
       style="fill: url(#linearGradient1141) rgb(0, 0, 0); fill-opacity: 1; fill-rule: evenodd; stroke: url(#linearGradient1157) rgb(0, 0, 0); stroke-width: 0.9625;"
       transform="matrix(0.571582, 0, 0, 0.571582, -77.7257, 72.3554)"
       width="28.796961"
       x="145.28902"
       y="-28.227346" />
    <rect
       height="3.3627598"
       id="rect1916"
       rx="1.6813799"
       ry="1.6813799"
       style="fill-opacity: 0.138365; fill-rule: evenodd; stroke-width: 0.46326;"
       transform="matrix(0.571582, 0, 0, 0.571582, -77.7257, 72.3554)"
       width="49.231453"
       x="187.88426"
       y="-21.681381" />
  </g>
  <path
     style="font-size: 12px; font-style: normal; font-weight: normal; fill: rgb(0, 0, 0); fill-opacity: 1; stroke: none; stroke-width: 1pt; stroke-linecap: butt; stroke-linejoin: miter; stroke-opacity: 1; font-family: helvetica;"
     d="M 7.0612345,-14.660837 L 7.0612345,-23.250681 L 8.2272501,-23.250681 L 12.738969,-16.50654 L 12.738969,-23.250681 L 13.828813,-23.250681 L 13.828813,-14.660837 L 12.662797,-14.660837 L 8.1510782,-21.410837 L 8.1510782,-14.660837 L 7.0612345,-14.660837 z M 19.869828,-16.664743 L 20.959672,-16.529978 C 20.787791,-15.893258 20.469432,-15.399118 20.004594,-15.047556 C 19.539745,-14.695993 18.945996,-14.520212 18.223344,-14.520212 C 17.313185,-14.520212 16.591506,-14.800485 16.058305,-15.361032 C 15.525101,-15.921578 15.2585,-16.70771 15.2585,-17.719431 C 15.2585,-18.766302 15.528031,-19.578801 16.067094,-20.156931 C 16.606155,-20.73505 17.305373,-21.024112 18.16475,-21.024118 C 18.996777,-21.024112 19.676464,-20.740909 20.203813,-20.174509 C 20.73115,-19.608098 20.994822,-18.811224 20.994828,-17.783884 C 20.994822,-17.721381 20.992869,-17.627631 20.988969,-17.502634 L 16.348344,-17.502634 C 16.387405,-16.819038 16.580764,-16.295601 16.928422,-15.932322 C 17.276076,-15.569039 17.709669,-15.387399 18.229203,-15.3874 C 18.615918,-15.387399 18.945996,-15.488961 19.219438,-15.692087 C 19.49287,-15.895211 19.709667,-16.219429 19.869828,-16.664743 L 19.869828,-16.664743 z M 16.406938,-18.369822 L 19.881547,-18.369822 C 19.834667,-18.893255 19.701855,-19.285833 19.483109,-19.547556 C 19.147168,-19.953801 18.711621,-20.156925 18.176469,-20.156931 C 17.692091,-20.156925 17.284865,-19.994816 16.954789,-19.670603 C 16.624709,-19.346379 16.442092,-18.912786 16.406938,-18.369822 L 16.406938,-18.369822 z M 24.592484,-15.604197 L 24.744828,-14.672556 C 24.44795,-14.610056 24.182326,-14.578806 23.947953,-14.578806 C 23.565139,-14.578806 23.268264,-14.639353 23.057328,-14.760447 C 22.846389,-14.88154 22.697952,-15.04072 22.612016,-15.237986 C 22.526077,-15.43525 22.483108,-15.850289 22.483109,-16.483103 L 22.483109,-20.063181 L 21.709672,-20.063181 L 21.709672,-20.883493 L 22.483109,-20.883493 L 22.483109,-22.424509 L 23.531938,-23.057322 L 23.531938,-20.883493 L 24.592484,-20.883493 L 24.592484,-20.063181 L 23.531938,-20.063181 L 23.531938,-16.424509 C 23.531936,-16.123726 23.55049,-15.930367 23.587602,-15.844431 C 23.624709,-15.758492 23.685256,-15.690133 23.769242,-15.639353 C 23.853224,-15.588571 23.973341,-15.56318 24.129594,-15.563181 C 24.246779,-15.56318 24.401075,-15.576852 24.592484,-15.604197 L 24.592484,-15.604197 z M 26.766313,-14.660837 L 24.862016,-20.883493 L 25.951859,-20.883493 L 26.942094,-17.291697 L 27.311234,-15.955759 C 27.326857,-16.022164 27.434279,-16.449898 27.6335,-17.238962 L 28.623734,-20.883493 L 29.707719,-20.883493 L 30.639359,-17.274118 L 30.949906,-16.084665 L 31.307328,-17.285837 L 32.373734,-20.883493 L 33.399125,-20.883493 L 31.453813,-14.660837 L 30.358109,-14.660837 L 29.367875,-18.3874 L 29.127641,-19.447947 L 27.867875,-14.660837 L 26.766313,-14.660837 z M 33.897172,-17.772165 C 33.897172,-18.924505 34.217484,-19.77802 34.858109,-20.332712 C 35.393264,-20.793644 36.045607,-21.024112 36.815141,-21.024118 C 37.670605,-21.024112 38.369823,-20.743839 38.912797,-20.183298 C 39.45576,-19.622746 39.727244,-18.848333 39.72725,-17.860056 C 39.727244,-17.059272 39.607127,-16.42939 39.366899,-15.970407 C 39.126659,-15.511422 38.77705,-15.154977 38.31807,-14.901072 C 37.859082,-14.647165 37.358106,-14.520212 36.815141,-14.520212 C 35.944045,-14.520212 35.239944,-14.799509 34.702836,-15.358103 C 34.165726,-15.916695 33.897172,-16.721382 33.897172,-17.772165 L 33.897172,-17.772165 z M 34.981156,-17.772165 C 34.981155,-16.975288 35.154983,-16.378609 35.502641,-15.982126 C 35.850295,-15.585641 36.287794,-15.387399 36.815141,-15.3874 C 37.338574,-15.387399 37.774121,-15.586617 38.121781,-15.985056 C 38.469433,-16.383492 38.643261,-16.990913 38.643266,-17.807322 C 38.643261,-18.576849 38.468456,-19.159856 38.118852,-19.556345 C 37.769238,-19.952824 37.334668,-20.151066 36.815141,-20.151072 C 36.287794,-20.151066 35.850295,-19.953801 35.502641,-19.559275 C 35.154983,-19.164739 34.981155,-18.569036 34.981156,-17.772165 L 34.981156,-17.772165 z M 40.957719,-14.660837 L 40.957719,-20.883493 L 41.906938,-20.883493 L 41.906938,-19.940134 C 42.149123,-20.381535 42.372756,-20.67255 42.577836,-20.813181 C 42.782912,-20.9538 43.008497,-21.024112 43.254594,-21.024118 C 43.610059,-21.024112 43.971387,-20.910831 44.338578,-20.684275 L 43.975297,-19.705759 C 43.717481,-19.858098 43.459669,-19.934269 43.201859,-19.934275 C 42.971388,-19.934269 42.764357,-19.864934 42.580766,-19.726267 C 42.39717,-19.58759 42.266311,-19.395207 42.188188,-19.149118 C 42.070998,-18.774114 42.012405,-18.363958 42.012406,-17.91865 L 42.012406,-14.660837 L 40.957719,-14.660837 z M 44.983109,-14.660837 L 44.983109,-23.250681 L 46.037797,-23.250681 L 46.037797,-18.352243 L 48.533891,-20.883493 L 49.899125,-20.883493 L 47.520219,-18.5749 L 50.139359,-14.660837 L 48.838578,-14.660837 L 46.781938,-17.842478 L 46.037797,-17.127634 L 46.037797,-14.660837 L 44.983109,-14.660837 z"
     id="text1232" />
  <path
     transform="scale(0.246729)"
     style="font-size: 12px; font-style: normal; font-weight: normal; fill: rgb(0, 0, 0); fill-opacity: 1; stroke: none; stroke-width: 1pt; stroke-linecap: butt; stroke-linejoin: miter; stroke-opacity: 1; font-family: helvetica;"
     d="M 91.619637,-37.962852 L 92.756355,-37.675743 C 92.518066,-36.742148 92.089356,-36.030234 91.470222,-35.540001 C 90.851076,-35.049766 90.09424,-34.804649 89.199715,-34.804649 C 88.27393,-34.804649 87.521001,-34.993126 86.940926,-35.370079 C 86.360846,-35.747031 85.91944,-36.292929 85.616707,-37.007774 C 85.313972,-37.722615 85.162605,-38.490193 85.162605,-39.310509 C 85.162605,-40.205035 85.333503,-40.985307 85.675301,-41.651329 C 86.017096,-42.317337 86.503424,-42.823196 87.134285,-43.168907 C 87.765141,-43.514602 88.459476,-43.687453 89.217293,-43.687462 C 90.076662,-43.687453 90.799318,-43.468703 91.385262,-43.031212 C 91.971192,-42.593704 92.379394,-41.97847 92.609871,-41.185509 L 91.49073,-40.921837 C 91.291505,-41.54683 91.002443,-42.001908 90.623543,-42.287071 C 90.244631,-42.57222 89.768069,-42.714798 89.193855,-42.714806 C 88.533695,-42.714798 87.981938,-42.556595 87.538582,-42.240196 C 87.09522,-41.923783 86.783697,-41.498979 86.604012,-40.965782 C 86.424322,-40.432574 86.334479,-39.882769 86.33448,-39.316368 C 86.334479,-38.585896 86.440924,-37.948201 86.653816,-37.403282 C 86.866705,-36.858358 87.197759,-36.451132 87.64698,-36.181602 C 88.096196,-35.91207 88.582523,-35.777305 89.105965,-35.777306 C 89.742678,-35.777305 90.28174,-35.960898 90.723152,-36.328087 C 91.164552,-36.695273 91.46338,-37.240194 91.619637,-37.962852 L 91.619637,-37.962852 z M 94.016121,-34.951134 L 94.016121,-41.17379 L 94.96534,-41.17379 L 94.96534,-40.230431 C 95.207525,-40.671831 95.431158,-40.962846 95.636238,-41.103477 C 95.841314,-41.244096 96.066899,-41.314409 96.312996,-41.314415 C 96.668461,-41.314409 97.029789,-41.201127 97.39698,-40.974571 L 97.033699,-39.996056 C 96.775883,-40.148394 96.518071,-40.224566 96.260262,-40.224571 C 96.02979,-40.224566 95.822759,-40.15523 95.639168,-40.016563 C 95.455572,-39.877887 95.324713,-39.685504 95.24659,-39.439415 C 95.1294,-39.064411 95.070807,-38.654255 95.070808,-38.208946 L 95.070808,-34.951134 L 94.016121,-34.951134 z M 102.29542,-36.95504 L 103.38526,-36.820274 C 103.21338,-36.183554 102.89502,-35.689414 102.43018,-35.337852 C 101.96533,-34.98629 101.37159,-34.810509 100.64893,-34.810509 C 99.738775,-34.810509 99.017096,-35.090782 98.483894,-35.651329 C 97.950691,-36.211875 97.684089,-36.998007 97.68409,-38.009727 C 97.684089,-39.056598 97.95362,-39.869098 98.492683,-40.447227 C 99.031744,-41.025346 99.730962,-41.314409 100.59034,-41.314415 C 101.42237,-41.314409 102.10205,-41.031206 102.6294,-40.464806 C 103.15674,-39.898394 103.42041,-39.10152 103.42042,-38.074181 C 103.42041,-38.011678 103.41846,-37.917928 103.41456,-37.792931 L 98.773933,-37.792931 C 98.812994,-37.109335 99.006354,-36.585898 99.354012,-36.222618 C 99.701665,-35.859336 100.13526,-35.677696 100.65479,-35.677696 C 101.04151,-35.677696 101.37159,-35.779258 101.64503,-35.982384 C 101.91846,-36.185507 102.13526,-36.509726 102.29542,-36.95504 L 102.29542,-36.95504 z M 98.832527,-38.660118 L 102.30714,-38.660118 C 102.26026,-39.183551 102.12744,-39.576129 101.9087,-39.837852 C 101.57276,-40.244097 101.13721,-40.447222 100.60206,-40.447227 C 100.11768,-40.447222 99.710454,-40.285113 99.380379,-39.960899 C 99.050299,-39.636676 98.867682,-39.203083 98.832527,-38.660118 L 98.832527,-38.660118 z M 108.77589,-35.718712 C 108.38526,-35.38668 108.00928,-35.152305 107.64796,-35.015587 C 107.28663,-34.878868 106.89893,-34.810509 106.48487,-34.810509 C 105.80128,-34.810509 105.27589,-34.977501 104.9087,-35.311485 C 104.54151,-35.645469 104.35792,-36.072226 104.35792,-36.591759 C 104.35792,-36.896444 104.42725,-37.174764 104.56593,-37.42672 C 104.7046,-37.67867 104.88624,-37.880818 105.11085,-38.033165 C 105.33546,-38.185505 105.58838,-38.30074 105.86964,-38.378868 C 106.07667,-38.433552 106.38917,-38.486286 106.80714,-38.537071 C 107.6587,-38.63863 108.28565,-38.759724 108.688,-38.900352 C 108.6919,-39.04488 108.69385,-39.136676 108.69386,-39.175743 C 108.69385,-39.605426 108.59424,-39.90816 108.39503,-40.083946 C 108.12549,-40.322222 107.7251,-40.441363 107.19386,-40.441368 C 106.69776,-40.441363 106.33155,-40.354449 106.09522,-40.180626 C 105.85889,-40.006793 105.68409,-39.699176 105.57081,-39.257774 L 104.53956,-39.398399 C 104.63331,-39.839801 104.7876,-40.196246 105.00245,-40.467735 C 105.21729,-40.739214 105.52784,-40.948198 105.93409,-41.094688 C 106.34034,-41.241167 106.81104,-41.314409 107.3462,-41.314415 C 107.87745,-41.314409 108.30909,-41.251909 108.64112,-41.126915 C 108.97315,-41.001909 109.21729,-40.844683 109.37354,-40.655235 C 109.52979,-40.465777 109.63916,-40.226519 109.70167,-39.937462 C 109.73682,-39.75777 109.7544,-39.433551 109.7544,-38.964806 L 109.7544,-37.558556 C 109.7544,-36.578085 109.77686,-35.957969 109.82178,-35.698204 C 109.8667,-35.438438 109.95557,-35.189415 110.08839,-34.951134 L 108.98682,-34.951134 C 108.87744,-35.169884 108.80713,-35.425743 108.77589,-35.718712 L 108.77589,-35.718712 z M 108.688,-38.074181 C 108.30518,-37.917928 107.73096,-37.785115 106.96534,-37.675743 C 106.53174,-37.61324 106.2251,-37.542928 106.04542,-37.464806 C 105.86573,-37.386678 105.72706,-37.27242 105.6294,-37.122032 C 105.53174,-36.97164 105.48292,-36.804647 105.48292,-36.621056 C 105.48292,-36.339804 105.58936,-36.105429 105.80225,-35.917931 C 106.01514,-35.73043 106.32667,-35.63668 106.73682,-35.636681 C 107.14307,-35.63668 107.5044,-35.725547 107.82081,-35.903282 C 108.13721,-36.081015 108.36963,-36.324179 108.51807,-36.632774 C 108.63135,-36.871054 108.68799,-37.222616 108.688,-37.687462 L 108.688,-38.074181 z M 113.69776,-35.894493 L 113.85011,-34.962852 C 113.55323,-34.900353 113.2876,-34.869103 113.05323,-34.869102 C 112.67042,-34.869103 112.37354,-34.929649 112.16261,-35.050743 C 111.95167,-35.171837 111.80323,-35.331016 111.71729,-35.528282 C 111.63135,-35.725547 111.58839,-36.140586 111.58839,-36.773399 L 111.58839,-40.353477 L 110.81495,-40.353477 L 110.81495,-41.17379 L 111.58839,-41.17379 L 111.58839,-42.714806 L 112.63721,-43.347618 L 112.63721,-41.17379 L 113.69776,-41.17379 L 113.69776,-40.353477 L 112.63721,-40.353477 L 112.63721,-36.714806 C 112.63721,-36.414023 112.65577,-36.220664 112.69288,-36.134727 C 112.72999,-36.048789 112.79053,-35.98043 112.87452,-35.929649 C 112.9585,-35.878867 113.07862,-35.853477 113.23487,-35.853477 C 113.35206,-35.853477 113.50635,-35.867148 113.69776,-35.894493 L 113.69776,-35.894493 z M 118.98292,-36.95504 L 120.07276,-36.820274 C 119.90088,-36.183554 119.58252,-35.689414 119.11768,-35.337852 C 118.65283,-34.98629 118.05909,-34.810509 117.33643,-34.810509 C 116.42627,-34.810509 115.7046,-35.090782 115.17139,-35.651329 C 114.63819,-36.211875 114.37159,-36.998007 114.37159,-38.009727 C 114.37159,-39.056598 114.64112,-39.869098 115.18018,-40.447227 C 115.71924,-41.025346 116.41846,-41.314409 117.27784,-41.314415 C 118.10987,-41.314409 118.78955,-41.031206 119.3169,-40.464806 C 119.84424,-39.898394 120.10791,-39.10152 120.10792,-38.074181 C 120.10791,-38.011678 120.10596,-37.917928 120.10206,-37.792931 L 115.46143,-37.792931 C 115.50049,-37.109335 115.69385,-36.585898 116.04151,-36.222618 C 116.38917,-35.859336 116.82276,-35.677696 117.34229,-35.677696 C 117.72901,-35.677696 118.05909,-35.779258 118.33253,-35.982384 C 118.60596,-36.185507 118.82276,-36.509726 118.98292,-36.95504 L 118.98292,-36.95504 z M 115.52003,-38.660118 L 118.99464,-38.660118 C 118.94776,-39.183551 118.81494,-39.576129 118.5962,-39.837852 C 118.26026,-40.244097 117.82471,-40.447222 117.28956,-40.447227 C 116.80518,-40.447222 116.39795,-40.285113 116.06788,-39.960899 C 115.7378,-39.636676 115.55518,-39.203083 115.52003,-38.660118 L 115.52003,-38.660118 z M 125.43995,-34.951134 L 125.43995,-35.73629 C 125.04541,-35.119102 124.46534,-34.810509 123.69971,-34.810509 C 123.20362,-34.810509 122.74756,-34.947227 122.33155,-35.220665 C 121.91553,-35.494102 121.59327,-35.875937 121.36475,-36.366173 C 121.13624,-36.856405 121.02198,-37.419881 121.02198,-38.056602 C 121.02198,-38.677693 121.1255,-39.241169 121.33253,-39.747032 C 121.53956,-40.252886 121.8501,-40.640581 122.26417,-40.910118 C 122.67823,-41.179643 123.14112,-41.314409 123.65284,-41.314415 C 124.02784,-41.314409 124.36182,-41.235307 124.65479,-41.07711 C 124.94776,-40.918901 125.18604,-40.712847 125.36964,-40.458946 L 125.36964,-43.540977 L 126.41846,-43.540977 L 126.41846,-34.951134 L 125.43995,-34.951134 z M 122.10596,-38.056602 C 122.10596,-37.259725 122.27393,-36.664023 122.60987,-36.269493 C 122.94581,-35.874961 123.34229,-35.677696 123.79932,-35.677696 C 124.26026,-35.677696 124.65186,-35.866172 124.97413,-36.243126 C 125.29639,-36.620077 125.45752,-37.195272 125.45753,-37.968712 C 125.45752,-38.82027 125.29346,-39.44527 124.96534,-39.843712 C 124.63721,-40.242144 124.23291,-40.441363 123.75245,-40.441368 C 123.2837,-40.441363 122.8921,-40.249957 122.57764,-39.867149 C 122.26319,-39.484332 122.10596,-38.880817 122.10596,-38.056602 L 122.10596,-38.056602 z M 132.38331,-34.951134 L 131.40479,-34.951134 L 131.40479,-43.540977 L 132.45948,-43.540977 L 132.45948,-40.476524 C 132.90479,-41.035112 133.47315,-41.314409 134.16456,-41.314415 C 134.54737,-41.314409 134.90967,-41.23726 135.25147,-41.08297 C 135.59326,-40.928667 135.87451,-40.71187 136.09522,-40.432579 C 136.31592,-40.153277 136.48877,-39.816363 136.61378,-39.421837 C 136.73877,-39.027302 136.80127,-38.605427 136.80128,-38.156212 C 136.80127,-37.089803 136.5376,-36.265586 136.01026,-35.683556 C 135.48291,-35.101524 134.8501,-34.810509 134.11182,-34.810509 C 133.37745,-34.810509 132.80127,-35.117149 132.38331,-35.730431 L 132.38331,-34.951134 z M 132.37159,-38.109337 C 132.37159,-37.363241 132.47315,-36.824179 132.67628,-36.492149 C 133.00831,-35.94918 133.45752,-35.677696 134.02393,-35.677696 C 134.48487,-35.677696 134.8833,-35.877891 135.21925,-36.278282 C 135.55518,-36.678671 135.72315,-37.27535 135.72315,-38.068321 C 135.72315,-38.880817 135.56201,-39.480426 135.23975,-39.867149 C 134.91748,-40.253863 134.52784,-40.447222 134.07081,-40.447227 C 133.60987,-40.447222 133.21143,-40.247027 132.8755,-39.846642 C 132.53956,-39.446246 132.37159,-38.867145 132.37159,-38.109337 L 132.37159,-38.109337 z M 138.04346,-32.554649 L 137.92628,-33.544884 C 138.15675,-33.482385 138.35792,-33.451135 138.52979,-33.451134 C 138.76417,-33.451135 138.95167,-33.490198 139.09229,-33.568321 C 139.23292,-33.646448 139.34815,-33.755822 139.438,-33.896446 C 139.5044,-34.001916 139.61182,-34.263634 139.76026,-34.681602 C 139.77979,-34.740196 139.81104,-34.826134 139.85401,-34.939415 L 137.49268,-41.17379 L 138.6294,-41.17379 L 139.92432,-37.570274 C 140.09229,-37.113241 140.24268,-36.632773 140.3755,-36.128868 C 140.49659,-36.613241 140.64112,-37.085897 140.80909,-37.546837 L 142.13917,-41.17379 L 143.19386,-41.17379 L 140.82667,-34.845665 C 140.57276,-34.162072 140.37549,-33.691369 140.23487,-33.433556 C 140.04737,-33.085901 139.83252,-32.831019 139.59034,-32.668907 C 139.34815,-32.5068 139.05909,-32.425746 138.72315,-32.425743 C 138.52003,-32.425746 138.29346,-32.468714 138.04346,-32.554649 L 138.04346,-32.554649 z M 146.60987,-34.951134 L 149.9087,-43.540977 L 151.13331,-43.540977 L 154.64893,-34.951134 L 153.35401,-34.951134 L 152.35206,-37.552696 L 148.76026,-37.552696 L 147.8169,-34.951134 L 146.60987,-34.951134 z M 149.08839,-38.478477 L 152.0005,-38.478477 L 151.10401,-40.857384 C 150.83057,-41.580033 150.62745,-42.173783 150.49464,-42.638634 C 150.38526,-42.087845 150.23096,-41.540971 150.03175,-40.998009 L 149.08839,-38.478477 z M 155.43409,-34.951134 L 155.43409,-41.17379 L 156.38331,-41.17379 L 156.38331,-40.289024 C 156.84034,-40.972612 157.50049,-41.314409 158.36378,-41.314415 C 158.73877,-41.314409 159.0835,-41.247026 159.39796,-41.112267 C 159.7124,-40.977495 159.94776,-40.800737 160.10401,-40.581993 C 160.26026,-40.363238 160.36963,-40.103472 160.43214,-39.802696 C 160.47119,-39.607379 160.49072,-39.265583 160.49073,-38.777306 L 160.49073,-34.951134 L 159.43604,-34.951134 L 159.43604,-38.73629 C 159.43604,-39.165973 159.39502,-39.487262 159.313,-39.700157 C 159.23096,-39.913043 159.08545,-40.082965 158.87647,-40.209923 C 158.66748,-40.336871 158.42237,-40.400347 158.14112,-40.400352 C 157.6919,-40.400347 157.3042,-40.257769 156.97803,-39.972618 C 156.65186,-39.687457 156.48878,-39.146442 156.48878,-38.349571 L 156.48878,-34.951134 L 155.43409,-34.951134 z M 166.15089,-34.951134 L 166.15089,-35.73629 C 165.75635,-35.119102 165.17627,-34.810509 164.41065,-34.810509 C 163.91456,-34.810509 163.4585,-34.947227 163.04249,-35.220665 C 162.62647,-35.494102 162.30421,-35.875937 162.07569,-36.366173 C 161.84718,-36.856405 161.73292,-37.419881 161.73292,-38.056602 C 161.73292,-38.677693 161.83643,-39.241169 162.04346,-39.747032 C 162.25049,-40.252886 162.56104,-40.640581 162.97511,-40.910118 C 163.38917,-41.179643 163.85206,-41.314409 164.36378,-41.314415 C 164.73877,-41.314409 165.07276,-41.235307 165.36573,-41.07711 C 165.65869,-40.918901 165.89698,-40.712847 166.08057,-40.458946 L 166.08057,-43.540977 L 167.1294,-43.540977 L 167.1294,-34.951134 L 166.15089,-34.951134 z M 162.8169,-38.056602 C 162.8169,-37.259725 162.98487,-36.664023 163.32081,-36.269493 C 163.65674,-35.874961 164.05323,-35.677696 164.51026,-35.677696 C 164.9712,-35.677696 165.3628,-35.866172 165.68507,-36.243126 C 166.00733,-36.620077 166.16846,-37.195272 166.16846,-37.968712 C 166.16846,-38.82027 166.0044,-39.44527 165.67628,-39.843712 C 165.34815,-40.242144 164.94385,-40.441363 164.46339,-40.441368 C 163.99463,-40.441363 163.60303,-40.249957 163.28858,-39.867149 C 162.97413,-39.484332 162.8169,-38.880817 162.8169,-38.056602 L 162.8169,-38.056602 z M 168.78175,-34.951134 L 168.78175,-41.17379 L 169.73096,-41.17379 L 169.73096,-40.230431 C 169.97315,-40.671831 170.19678,-40.962846 170.40186,-41.103477 C 170.60694,-41.244096 170.83252,-41.314409 171.07862,-41.314415 C 171.43409,-41.314409 171.79541,-41.201127 172.16261,-40.974571 L 171.79932,-39.996056 C 171.54151,-40.148394 171.2837,-40.224566 171.02589,-40.224571 C 170.79541,-40.224566 170.58838,-40.15523 170.40479,-40.016563 C 170.2212,-39.877887 170.09034,-39.685504 170.01221,-39.439415 C 169.89503,-39.064411 169.83643,-38.654255 169.83643,-38.208946 L 169.83643,-34.951134 L 168.78175,-34.951134 z M 177.06104,-36.95504 L 178.15089,-36.820274 C 177.97901,-36.183554 177.66065,-35.689414 177.19581,-35.337852 C 176.73096,-34.98629 176.13721,-34.810509 175.41456,-34.810509 C 174.5044,-34.810509 173.78272,-35.090782 173.24952,-35.651329 C 172.71632,-36.211875 172.44971,-36.998007 172.44971,-38.009727 C 172.44971,-39.056598 172.71925,-39.869098 173.25831,-40.447227 C 173.79737,-41.025346 174.49659,-41.314409 175.35596,-41.314415 C 176.18799,-41.314409 176.86768,-41.031206 177.39503,-40.464806 C 177.92236,-39.898394 178.18604,-39.10152 178.18604,-38.074181 C 178.18604,-38.011678 178.18408,-37.917928 178.18018,-37.792931 L 173.53956,-37.792931 C 173.57862,-37.109335 173.77198,-36.585898 174.11964,-36.222618 C 174.46729,-35.859336 174.90088,-35.677696 175.42042,-35.677696 C 175.80713,-35.677696 176.13721,-35.779258 176.41065,-35.982384 C 176.68408,-36.185507 176.90088,-36.509726 177.06104,-36.95504 L 177.06104,-36.95504 z M 173.59815,-38.660118 L 177.07276,-38.660118 C 177.02588,-39.183551 176.89307,-39.576129 176.67432,-39.837852 C 176.33838,-40.244097 175.90284,-40.447222 175.36768,-40.447227 C 174.88331,-40.447222 174.47608,-40.285113 174.146,-39.960899 C 173.81592,-39.636676 173.63331,-39.203083 173.59815,-38.660118 L 173.59815,-38.660118 z M 180.6294,-34.951134 L 178.72511,-41.17379 L 179.81495,-41.17379 L 180.80518,-37.581993 L 181.17432,-36.246056 C 181.18995,-36.31246 181.29737,-36.740194 181.49659,-37.529259 L 182.48682,-41.17379 L 183.57081,-41.17379 L 184.50245,-37.564415 L 184.813,-36.374962 L 185.17042,-37.576134 L 186.23682,-41.17379 L 187.26221,-41.17379 L 185.3169,-34.951134 L 184.2212,-34.951134 L 183.23096,-38.677696 L 182.99073,-39.738243 L 181.73096,-34.951134 L 180.6294,-34.951134 z M 191.67432,-34.951134 L 191.67432,-43.540977 L 197.46925,-43.540977 L 197.46925,-42.527306 L 192.81104,-42.527306 L 192.81104,-39.867149 L 196.84229,-39.867149 L 196.84229,-38.853477 L 192.81104,-38.853477 L 192.81104,-34.951134 L 191.67432,-34.951134 z M 198.82276,-42.328087 L 198.82276,-43.540977 L 199.87745,-43.540977 L 199.87745,-42.328087 L 198.82276,-42.328087 z M 198.82276,-34.951134 L 198.82276,-41.17379 L 199.87745,-41.17379 L 199.87745,-34.951134 L 198.82276,-34.951134 z M 203.79151,-35.894493 L 203.94386,-34.962852 C 203.64698,-34.900353 203.38135,-34.869103 203.14698,-34.869102 C 202.76417,-34.869103 202.46729,-34.929649 202.25636,-35.050743 C 202.04542,-35.171837 201.89698,-35.331016 201.81104,-35.528282 C 201.7251,-35.725547 201.68214,-36.140586 201.68214,-36.773399 L 201.68214,-40.353477 L 200.9087,-40.353477 L 200.9087,-41.17379 L 201.68214,-41.17379 L 201.68214,-42.714806 L 202.73096,-43.347618 L 202.73096,-41.17379 L 203.79151,-41.17379 L 203.79151,-40.353477 L 202.73096,-40.353477 L 202.73096,-36.714806 C 202.73096,-36.414023 202.74952,-36.220664 202.78663,-36.134727 C 202.82374,-36.048789 202.88428,-35.98043 202.96827,-35.929649 C 203.05225,-35.878867 203.17237,-35.853477 203.32862,-35.853477 C 203.44581,-35.853477 203.6001,-35.867148 203.79151,-35.894493 L 203.79151,-35.894493 z M 204.26026,-34.951134 L 204.26026,-35.806602 L 208.2212,-40.353477 C 207.77198,-40.330035 207.37549,-40.318316 207.03175,-40.318321 L 204.49464,-40.318321 L 204.49464,-41.17379 L 209.58057,-41.17379 L 209.58057,-40.476524 L 206.21143,-36.527306 L 205.56104,-35.806602 C 206.0337,-35.841758 206.47706,-35.859336 206.89112,-35.859337 L 209.76807,-35.859337 L 209.76807,-34.951134 L 204.26026,-34.951134 z M 210.39503,-36.808556 L 211.438,-36.972618 C 211.49659,-36.554648 211.65967,-36.234336 211.92725,-36.011681 C 212.19483,-35.789024 212.56885,-35.677696 213.04932,-35.677696 C 213.5337,-35.677696 213.89307,-35.776328 214.12745,-35.973595 C 214.36182,-36.170859 214.47901,-36.402304 214.47901,-36.667931 C 214.47901,-36.90621 214.37549,-37.09371 214.16846,-37.230431 C 214.02393,-37.324178 213.66455,-37.443319 213.09034,-37.587852 C 212.3169,-37.783162 211.78077,-37.952107 211.48194,-38.094688 C 211.18311,-38.237263 210.95655,-38.434529 210.80225,-38.686485 C 210.64796,-38.938434 210.57081,-39.216754 210.57081,-39.521446 C 210.57081,-39.798785 210.63428,-40.055621 210.76124,-40.291954 C 210.88819,-40.528277 211.06104,-40.724565 211.27979,-40.880821 C 211.44385,-41.001909 211.66749,-41.104448 211.95069,-41.188438 C 212.23389,-41.272416 212.5376,-41.314409 212.86182,-41.314415 C 213.3501,-41.314409 213.77881,-41.244096 214.14796,-41.103477 C 214.51709,-40.962846 214.78955,-40.772417 214.96534,-40.532188 C 215.14112,-40.291949 215.26221,-39.97066 215.32862,-39.568321 L 214.29737,-39.427696 C 214.25049,-39.748004 214.11475,-39.998004 213.89014,-40.177696 C 213.66553,-40.357378 213.34815,-40.447222 212.938,-40.447227 C 212.45362,-40.447222 212.10792,-40.367144 211.90089,-40.206993 C 211.69385,-40.046832 211.59034,-39.859332 211.59034,-39.644493 C 211.59034,-39.50777 211.63331,-39.384723 211.71925,-39.275352 C 211.80518,-39.162067 211.93995,-39.068317 212.12354,-38.994102 C 212.22901,-38.955036 212.53956,-38.865192 213.05518,-38.724571 C 213.80127,-38.525349 214.32178,-38.362263 214.61671,-38.235313 C 214.91162,-38.108357 215.14307,-37.923787 215.31104,-37.681602 C 215.47901,-37.439412 215.56299,-37.138632 215.563,-36.779259 C 215.56299,-36.427695 215.46045,-36.09664 215.25538,-35.786095 C 215.0503,-35.475547 214.7544,-35.235313 214.36768,-35.065392 C 213.98096,-34.89547 213.54346,-34.810509 213.05518,-34.810509 C 212.24659,-34.810509 211.63038,-34.978477 211.20655,-35.314415 C 210.78272,-35.650352 210.51221,-36.148398 210.39503,-36.808556 L 210.39503,-36.808556 z M 216.82276,-42.328087 L 216.82276,-43.540977 L 217.87745,-43.540977 L 217.87745,-42.328087 L 216.82276,-42.328087 z M 216.82276,-34.951134 L 216.82276,-41.17379 L 217.87745,-41.17379 L 217.87745,-34.951134 L 216.82276,-34.951134 z M 219.48878,-34.951134 L 219.48878,-41.17379 L 220.43214,-41.17379 L 220.43214,-40.300743 C 220.62745,-40.605425 220.88721,-40.850542 221.21143,-41.036095 C 221.53565,-41.221635 221.90479,-41.314409 222.31886,-41.314415 C 222.77979,-41.314409 223.15772,-41.218706 223.45264,-41.027306 C 223.74756,-40.835893 223.95557,-40.568316 224.07667,-40.224571 C 224.56885,-40.951128 225.20947,-41.314409 225.99854,-41.314415 C 226.61572,-41.314409 227.09033,-41.14351 227.42237,-40.80172 C 227.75439,-40.459917 227.92041,-39.933551 227.92042,-39.222618 L 227.92042,-34.951134 L 226.87159,-34.951134 L 226.87159,-38.871056 C 226.87158,-39.292926 226.8374,-39.596637 226.76905,-39.782188 C 226.70068,-39.96773 226.57666,-40.117144 226.39698,-40.230431 C 226.21729,-40.343706 226.00635,-40.400347 225.76417,-40.400352 C 225.32666,-40.400347 224.96338,-40.254839 224.67432,-39.963829 C 224.38526,-39.672809 224.24072,-39.206989 224.24073,-38.566368 L 224.24073,-34.951134 L 223.18604,-34.951134 L 223.18604,-38.994102 C 223.18604,-39.462848 223.1001,-39.81441 222.92823,-40.04879 C 222.75635,-40.28316 222.4751,-40.400347 222.08448,-40.400352 C 221.7876,-40.400347 221.51319,-40.322222 221.26124,-40.165977 C 221.00928,-40.009722 220.82667,-39.781207 220.71339,-39.480431 C 220.6001,-39.179645 220.54346,-38.746052 220.54346,-38.179649 L 220.54346,-34.951134 L 219.48878,-34.951134 z M 229.10401,-38.062462 C 229.10401,-39.214801 229.42432,-40.068316 230.06495,-40.623009 C 230.6001,-41.08394 231.25245,-41.314409 232.02198,-41.314415 C 232.87744,-41.314409 233.57666,-41.034135 234.11964,-40.473595 C 234.6626,-39.913043 234.93408,-39.13863 234.93409,-38.150352 C 234.93408,-37.349569 234.81397,-36.719687 234.57374,-36.260704 C 234.3335,-35.801719 233.98389,-35.445274 233.52491,-35.191368 C 233.06592,-34.937462 232.56495,-34.810509 232.02198,-34.810509 C 231.15088,-34.810509 230.44678,-35.089805 229.90968,-35.648399 C 229.37257,-36.206992 229.10401,-37.011679 229.10401,-38.062462 L 229.10401,-38.062462 z M 230.188,-38.062462 C 230.18799,-37.265585 230.36182,-36.668905 230.70948,-36.272423 C 231.05713,-35.875937 231.49463,-35.677696 232.02198,-35.677696 C 232.54541,-35.677696 232.98096,-35.876914 233.32862,-36.275352 C 233.67627,-36.673788 233.8501,-37.28121 233.85011,-38.097618 C 233.8501,-38.867145 233.6753,-39.450153 233.32569,-39.846642 C 232.97608,-40.243121 232.54151,-40.441363 232.02198,-40.441368 C 231.49463,-40.441363 231.05713,-40.244097 230.70948,-39.849571 C 230.36182,-39.455035 230.18799,-38.859333 230.188,-38.062462 L 230.188,-38.062462 z M 236.17628,-34.951134 L 236.17628,-41.17379 L 237.1255,-41.17379 L 237.1255,-40.289024 C 237.58252,-40.972612 238.24268,-41.314409 239.10596,-41.314415 C 239.48096,-41.314409 239.82569,-41.247026 240.14014,-41.112267 C 240.45459,-40.977495 240.68994,-40.800737 240.8462,-40.581993 C 241.00244,-40.363238 241.11182,-40.103472 241.17432,-39.802696 C 241.21338,-39.607379 241.23291,-39.265583 241.23292,-38.777306 L 241.23292,-34.951134 L 240.17823,-34.951134 L 240.17823,-38.73629 C 240.17823,-39.165973 240.13721,-39.487262 240.05518,-39.700157 C 239.97315,-39.913043 239.82764,-40.082965 239.61866,-40.209923 C 239.40967,-40.336871 239.16455,-40.400347 238.88331,-40.400352 C 238.43409,-40.400347 238.04639,-40.257769 237.72022,-39.972618 C 237.39405,-39.687457 237.23096,-39.146442 237.23096,-38.349571 L 237.23096,-34.951134 L 236.17628,-34.951134 z"
     id="text1235" />
  <g
     transform="matrix(0.5038957,0,0,0.5038957,20.570509,-67.699299)"
     style="font-style:normal;font-variant:normal;font-weight:normal;font-stretch:normal;font-size:106.620224px;line-height:125%;font-family:UnPilgia;-inkscape-font-specification:UnPilgia;text-align:start;letter-spacing:0px;word-spacing:0px;writing-mode:lr-tb;text-anchor:start;fill:#01407c;fill-opacity:1;stroke:none"
     id="g3229">
    <g
       id="g3131">
      <path
         inkscape:connector-curvature="0"
         id="path3091"
         d="m 168.98521,447.48584 c -1.91685,-1.03197 -12.26019,-6.93139 -22.98519,-13.10981 -10.725,-6.17843 -27.73737,-15.95907 -37.80526,-21.73475 -10.067889,-5.77568 -19.551175,-11.54961 -21.073965,-12.83096 -4.996661,-4.20441 -5.198096,-6.51715 -5.139661,-59.01021 0.05868,-52.71422 0.02711,-52.39208 5.645724,-57.60226 1.580239,-1.46537 11.873161,-7.80964 22.873162,-14.09838 11,-6.28875 27.65,-15.86766 37,-21.28648 24.28216,-14.07279 25.09188,-14.45117 30.91948,-14.44857 5.40004,0.002 2.55622,-1.50694 64.58052,34.27615 24.6638,14.22905 26.00201,15.11698 28.74347,19.0719 l 0.70296,1.11953 1.69952,52.23771 c 0.36354,11.1741 0.80724,49.60984 -0.99981,53.69497 -1.04966,2.37292 -3.42444,5.4514 -5.2773,6.84106 -1.85286,1.38966 -14.16884,8.71604 -27.36884,16.28085 -13.2,7.5648 -31.27926,17.9665 -40.17613,23.11487 -15.3773,8.89843 -16.46446,9.36069 -22.01481,9.36069 -3.8054,0 -7.05237,-0.65341 -9.32387,-1.87631 z m 27.7999,-44.52007 c 8.5926,-2.65518 17.07103,-7.40422 23.53069,-13.16162 6.18695,-5.51434 14.18674,-15.11403 13.35232,-16.46415 -0.58637,-0.94877 -26.14538,-15.60285 -27.18233,-15.60285 -0.34273,0 -2.86157,2.30122 -5.05177,4.67731 -2.19021,2.37609 -4.84412,4.65645 -7.75274,6.26786 -4.80839,2.6639 -7.04354,4.17958 -15.68126,4.17707 -7.98157,-0.002 -9.82936,-0.81531 -13.43792,-2.73975 -6.6142,-3.52734 -12.06816,-8.2321 -15.17154,-14.52601 -2.41732,-4.90251 -2.83073,-6.96087 -2.8583,-14.23148 -0.0268,-7.05262 0.37831,-9.3033 2.37879,-13.21752 3.74418,-7.326 7.39765,-11.13039 14.26399,-14.85319 5.79267,-3.14068 7.04034,-3.42929 14.82498,-3.42929 7.79432,0 9.0283,0.2864 14.86342,3.44978 3.49989,1.89738 7.7377,5.15988 9.41737,7.25 1.67967,2.09012 3.60082,4.55783 4.1149,4.55783 1.24402,0 26.22881,-14.45655 26.9175,-15.57088 1.55236,-2.51176 -12.61135,-17.40008 -21.51865,-22.81132 -3.138,-1.90635 -8.988,-4.6712 -13,-6.1441 -6.57199,-2.41274 -8.63176,-2.67759 -20.79454,-2.67375 -11.62874,0.004 -14.40098,0.32863 -20,2.34435 -9.72882,3.5025 -16.53848,7.69808 -24.15283,14.88107 -7.5865,7.15672 -12.46825,14.48311 -16.55658,24.84762 -2.50226,6.34358 -2.7108,7.9793 -2.72445,21.3694 -0.0142,13.90277 0.11267,14.81678 3.07965,22.19098 8.89389,22.10512 26.44017,37.19032 50.55064,41.57534 5.11961,0.93111 22.65837,-0.3302 28.58866,-2.1627 z m 65.45109,-54.53541 c 0.0605,-2.58611 0.72793,-3.61296 3.51382,-3.88157 2.97542,-0.28688 3.25,-0.60371 3.25,-3.75 0,-3.24885 -0.18779,-3.43664 -3.43664,-3.43664 -3.14601,0 -3.46314,-0.27475 -3.75,-3.24881 -0.27713,-2.87315 -0.66024,-3.24894 -3.31336,-3.25 -2.64233,-10e-4 -3.03684,0.37925 -3.30896,3.18985 -0.26901,2.77845 -1.78222,3.6092 -4.57329,3.56313 -2.8395,-0.0469 -3.29423,1.03817 -3.30994,3.74379 -0.0172,2.95904 0.25377,3.71104 3.31567,3.62627 2.92017,-0.0808 3.99535,0.31178 3.99595,3.12815 5.5e-4,2.61365 1.11021,3.9458 3.50507,3.91196 3.43945,-0.0486 4.02531,0.0931 4.11168,-3.59613 z m -26.48133,0.81821 c -0.0401,-2.85772 0.18745,-4.03308 3.05828,-4.0053 2.97542,0.0288 4.07075,-0.41431 4.07075,-3.5606 0,-3.24885 -0.12465,-4.25739 -3.3735,-4.25739 -3.14629,0 -3.52626,-0.96906 -3.81314,-3.94448 -0.27718,-2.87481 -1.35417,-2.99746 -4.00784,-2.99746 -2.64203,0 -3.22627,0.75957 -3.49836,3.56985 -0.26901,2.77845 -0.72155,3.23099 -3.5,3.5 -2.79217,0.27034 -3.51825,0.70205 -3.5044,3.55896 0.0151,3.11725 -0.10468,4.13388 3.31313,4.13388 3.40574,0 3.50023,-0.72907 3.50023,2.61612 0,3.32104 0.80707,4.32075 4.06799,4.32075 3.14629,0 3.72884,0.0546 3.68686,-2.93433 z"
         style="fill:#6599d1"
         sodipodi:nodetypes="sssssssscsscssssssssssssscsssssssssssscsssssssssssscssssssssssssssssssss" />
      <path
         inkscape:connector-curvature="0"
         id="path3089"
         d="m 137.55359,429.50315 c -48.3097,-26.85482 -48.118042,-27.84553 -50.682378,-30.21831 -1.2375,-1.14505 -2.431446,-2.37657 -2.42172,-2.96819 0.01745,-1.06137 35.578778,-21.99956 37.209468,-21.90651 0.46258,0.0264 2.64106,2.57093 4.84106,5.65453 7.68945,10.7778 21.65656,20.14767 35.58658,23.87334 8.47982,2.26799 23.36835,2.26023 31.91342,-0.0166 8.85498,-2.35943 20.50696,-8.58434 27.14811,-14.5035 5.07154,-4.52019 13.73782,-15.63393 12.76829,-16.3742 -1.00527,-0.76758 -27.1205,-15.68156 -27.45927,-15.68156 -0.20734,0 -2.47564,2.24364 -5.04067,4.98586 -12.97529,13.87163 -33.78407,14.10284 -46.30932,0.51455 -2.25893,-2.45065 -4.09705,-4.80328 -4.08472,-5.22807 0.0219,-0.75536 46.12492,-27.71813 54.50218,-31.87493 4.98875,-2.47542 27.52497,-15.4613 28.9754,-16.69628 0.55,-0.4683 9.1,-5.51981 19,-11.22559 11.98907,-6.90979 18.33394,-10.04064 19,-9.37549 1.40665,1.40474 2.85382,99.23968 1.08172,103.81521 -1.83029,4.72576 -2.78891,4.86711 -4.31891,6.33295 -1.53001,1.46584 -12.45255,8.23291 -24.27232,15.03794 -11.81977,6.80503 -29.81906,17.5527 -40.54406,23.77458 -17.07913,9.90809 -20.45125,12.00129 -25.44643,11.66708 l -7.45718,-0.69256 z m 98.44643,-80.641 c 0,-3.33333 0.16667,-3.5 3.5,-3.5 3.41667,0 3.5,-0.0952 3.5,-4 0,-3.90476 -0.0833,-4 -3.5,-4 -3.33333,0 -3.5,-0.16667 -3.5,-3.5 0,-3.41667 -0.0952,-3.5 -4,-3.5 -3.90476,0 -4,0.0833 -4,3.5 0,3.33333 -0.16667,3.5 -3.5,3.5 -3.41667,0 -3.5,0.0952 -3.5,4 0,3.90476 0.0833,4 3.5,4 3.33333,0 3.5,0.16667 3.5,3.5 0,3.41667 0.0952,3.5 4,3.5 3.90476,0 4,-0.0833 4,-3.5 z m 26.5,0 c 0,-2.66667 0.38889,-3.4975 3.5,-3.94194 3.24941,-0.4642 3.18107,-0.30865 3.13878,-3.55806 -0.0414,-3.18116 -0.0164,-3.52815 -2.87537,-3.80896 -2.72712,-0.26787 -3.62852,-0.67026 -3.89639,-3.43687 -0.29092,-3.00472 -0.10057,-3.25417 -3.86702,-3.25417 -3.78188,0 -3.70142,0.1141 -3.99769,3.18687 -0.28688,2.97542 -0.91938,3.31313 -4.06567,3.31313 -3.34275,0 -3.43664,0.10928 -3.43664,4 0,3.98402 0.0156,4 3.90638,4 3.40425,0 3.42615,0.19741 3.38728,1.98506 -0.0816,3.75532 0.3889,4.90902 4.4483,4.82578 3.45088,-0.0708 3.75804,-0.56484 3.75804,-3.31084 z"
         style="fill:#004b8b"
         sodipodi:nodetypes="sssssssscssscssssssssscsssssssssssssssssssssssssss" />
      <path
         inkscape:connector-curvature="0"
         id="path3087"
         d="m 167.96653,446.8382 c -23.68679,-13.82337 -47.79194,-26.91523 -71.319896,-41.01163 -3.803963,-3.20176 -17.769602,-8.75433 -7.533935,-12.60418 10.958851,-6.70074 21.883831,-13.57765 33.423031,-19.2222 9.29747,15.02382 24.18975,27.17159 41.7657,30.73976 15.03969,2.47454 31.2877,1.42082 44.62169,-6.58943 10.00275,-6.00348 18.71604,-14.2711 25.5769,-23.69548 12.21391,7.3072 25.16055,13.62185 36.35685,22.438 -4.50652,6.40549 -12.86165,9.1243 -19.23281,13.56184 -21.37689,12.17035 -42.62551,24.60254 -64.05177,36.66306 -6.09776,2.67562 -13.66755,3.1525 -19.60576,-0.27974 z m 3.05773,-75.04766 c -7.53307,-2.12087 -15.41342,-6.35394 -19.12273,-13.44194 4.16885,-4.69536 10.67057,-6.76995 15.87022,-10.2558 3.43073,-1.97479 6.86146,-3.94958 10.29219,-5.92437 9.01654,5.12629 18.03307,10.25259 27.0496,15.37889 -7.0873,11.10906 -21.1174,17.51522 -34.08928,14.24322 z"
         style="fill:#01407c" />
    </g>
    <path
       inkscape:connector-curvature="0"
       id="path3217"
       style="line-height:125%;font-family:UnPilgia;-inkscape-font-specification:UnPilgia;fill:#01407c"
       d="m 124.03096,302.51345 c -5.89969,4.54913 -11.33732,6.8237 -16.3129,6.8237 -5.18887,0 -8.38747,-1.99025 -9.595819,-5.97073 -0.284333,-1.35052 -0.533113,-2.45226 -0.746342,-3.30523 l -0.21324,-0.85296 -0.639722,-3.09199 -0.42648,-6.71707 c -2.772134,3.55402 -6.752618,7.99652 -11.941466,13.32752 l -1.812543,-3.94494 3.305227,-3.19861 3.305227,-3.73171 6.823694,-9.38258 0.533101,-11.0885 v -3.19861 c 0.42647,-2.48776 0.67525,-4.26476 0.746342,-5.33101 0.07107,-0.5686 0.177688,-1.35048 0.31986,-2.34564 -1.2e-5,-0.85292 0.248769,-2.38114 0.746342,-4.58467 l 1.386063,-6.71708 c 0.426466,-1.84802 1.457126,-5.11771 3.091986,-9.80906 1.3505,-3.62502 3.12751,-5.43756 5.33101,-5.43763 1.42158,7e-5 3.02088,0.60425 4.79791,1.81254 l 3.73171,2.77213 1.81254,1.70592 c 0.85293,1.06627 1.27941,2.31017 1.27945,3.73171 -4e-5,1.2795 -0.78192,4.05163 -2.34565,8.31638 -1.49271,4.4781 -3.16309,8.24534 -5.01115,11.30174 l -5.75749,9.4892 -5.33101,8.20976 c -2e-5,5.40211 0.24876,9.88016 0.74634,13.43415 0.2843,2.70105 1.3505,4.72683 3.19861,6.07735 1.77698,1.35053 3.73168,2.02579 5.86411,2.02578 3.41182,1e-5 7.28568,-1.42159 11.6216,-4.2648 l 1.49269,3.94494 m -10.76865,-57.68154 c -3e-5,-1.84802 -1.03069,-3.30516 -3.09198,-4.37143 l -1.06621,-0.42648 c -0.7819,7e-5 -1.27946,0.35547 -1.49268,1.0662 l -1.27944,3.73171 c -1.77702,5.11783 -3.05647,9.84465 -3.83833,14.18049 -0.92406,4.83349 -1.38608,9.88018 -1.38606,15.14007 l 2.77212,-4.79791 3.09199,-5.97073 2.6655,-6.07735 1.06621,-2.87875 1.0662,-3.1986 1.27944,-4.26481 0.21324,-2.13241" />
    <path
       inkscape:connector-curvature="0"
       id="path3219"
       style="line-height:125%;font-family:UnPilgia;-inkscape-font-specification:UnPilgia;fill:#01407c"
       d="m 158.57591,270.52739 c 0.28428,6.82372 -0.74638,13.86065 -3.09199,21.1108 -1.99027,6.18398 -3.98051,10.48433 -5.97073,12.90105 -1.49271,1.91916 -3.02093,3.34076 -4.58467,4.26481 -1.42162,0.92404 -2.94985,1.38606 -4.58467,1.38606 -3.41186,0 -6.21952,-1.52823 -8.423,-4.58467 -2.55889,-3.41184 -3.87387,-7.14355 -3.94495,-11.19512 l -0.10662,-2.87875 c -0.0711,-4.33587 0.56864,-8.52959 1.91917,-12.58119 2.13239,-5.89961 4.86898,-11.08846 8.20975,-15.56655 2.20347,-2.91424 4.65574,-4.86894 7.3568,-5.86411 l 0.74634,-0.10662 h 0.85296 l 1.5993,0.42648 2.23903,1.17282 c 0.6397,0.42653 0.95956,0.99517 0.95958,1.70593 l -0.31986,1.17282 -0.63972,1.17282 -0.74634,0.95958 -0.85296,0.74634 -0.74635,0.31987 -1.17282,-0.31987 -0.85296,-0.42648 -0.95958,-0.10662 c -2.62998,5e-5 -5.18887,3.37635 -7.67666,10.12892 -0.99513,2.63 -1.67039,5.08226 -2.02578,7.3568 l -0.85296,5.54425 -0.10662,2.23903 c -1e-5,0.42649 -0.0356,0.88851 -0.10662,1.38606 -1e-5,0.4265 -1e-5,0.56866 0,0.42648 v 2.34565 c -1e-5,0.99513 0.31985,2.52335 0.95958,4.58467 0.14215,0.56864 0.46201,1.38606 0.95958,2.45226 0.78187,1.63485 2.20347,2.45227 4.26481,2.45227 3.98047,0 7.17907,-3.98049 9.59582,-11.94147 0.71077,-2.20347 1.06618,-4.90451 1.0662,-8.10314 -2e-5,-2.70102 -0.24881,-5.04666 -0.74634,-7.03693 -0.63975,-2.55885 -0.95961,-4.51356 -0.95958,-5.86411 -3e-5,-2.27453 1.06617,-4.37139 3.1986,-6.2906 1.20834,-1.13724 2.34562,-1.74142 3.41185,-1.81254 1.06617,4e-5 1.67035,0.74638 1.81255,2.23902 l 0.31986,6.18398" />
    <path
       inkscape:connector-curvature="0"
       id="path3221"
       style="line-height:125%;font-family:UnPilgia;-inkscape-font-specification:UnPilgia;fill:#01407c"
       d="m 199.30483,261.89115 c -3e-5,0.28436 -0.17773,0.88854 -0.5331,1.81254 l -1.27944,1.59931 -1.38607,1.5993 -1.38606,0.5331 c -0.63975,4e-5 -1.10177,-0.14212 -1.38606,-0.42648 l -1.59931,-0.95958 -0.63972,-0.5331 -0.74634,-0.5331 c -1.13731,-0.63968 -2.31013,-0.95954 -3.51847,-0.95959 -1.20838,5e-5 -2.45228,0.31991 -3.7317,0.95959 -2.77215,1.77704 -4.62023,4.407 -5.54426,7.88989 l -1.81254,6.61046 -0.85296,3.83832 -0.42648,5.86412 c -0.14217,2.06134 0.28431,4.37144 1.27944,6.93031 0.85295,2.06133 2.45225,3.09199 4.79791,3.09199 2.98535,0 5.43761,-1.99024 7.3568,-5.97074 1.20833,-2.41671 1.95468,-4.65573 2.23902,-6.71707 l 1.0662,-6.82369 0.63972,-8.84948 7.3568,-0.63972 c -0.92408,3.05648 -1.63488,6.184 -2.13241,9.38258 -0.56867,3.55403 -0.88853,6.57493 -0.95958,9.06271 l -0.21324,18.23206 c -3e-5,8.24529 -1.17285,13.78954 -3.51847,16.63276 -1.63486,1.84806 -3.87389,3.3052 -6.71707,4.37143 -2.84322,1.06618 -5.86413,1.59928 -9.06272,1.5993 -4.76237,-2e-5 -8.20976,-1.10176 -10.34216,-3.30523 -0.28432,-0.21326 -0.49756,-0.92406 -0.63972,-2.1324 l 0.21324,-2.45227 0.95958,-3.62508 0.95958,-2.87875 0.63972,-2.34564 3.19861,0.5331 -0.63972,4.26481 -0.31986,3.30522 c 5.11776,1.35051 8.885,2.02577 11.30174,2.02579 2.27455,-2e-5 4.05155,-0.53312 5.33101,-1.59931 1.3505,-1.06621 2.23901,-2.59443 2.66551,-4.58467 0.2843,-1.49269 0.49754,-4.69129 0.63972,-9.59582 l 0.21324,-11.51498 -4.90453,5.86411 c -1.63486,1.63485 -2.94984,2.70105 -3.94495,3.19861 l -2.6655,0.95958 -2.02579,0.21324 c -2.91429,0 -5.08223,-1.2439 -6.50383,-3.73171 -1.42161,-2.70104 -2.13241,-6.18396 -2.1324,-10.44878 -1e-5,-2.70103 0.42647,-6.07733 1.27944,-10.12892 0.21323,-1.06618 0.63971,-2.70102 1.27944,-4.90453 l 2.34565,-5.97073 c 0.71079,-1.99021 2.45225,-4.83341 5.22439,-8.52962 2.27455,-3.12748 5.65085,-4.69124 10.12892,-4.69129 l 1.17282,0.10662 c 1.77698,5e-5 3.3052,0.24883 4.58467,0.74634 3.12749,1.06625 4.69126,2.27461 4.69129,3.62509" />
    <path
       inkscape:connector-curvature="0"
       id="path3223"
       style="line-height:125%;font-family:UnPilgia;-inkscape-font-specification:UnPilgia;fill:#01407c"
       d="m 239.07417,280.76293 -0.10662,1.17282 -0.10662,0.42648 -0.10662,0.31986 c -3e-5,2.06135 -0.92407,3.48295 -2.77213,4.26481 l -2.6655,0.95958 -2.45227,0.63972 -0.21324,5.54426 -0.21324,5.33101 -0.31986,4.15819 c -0.0711,1.35052 -0.31988,2.27456 -0.74634,2.77212 -0.49758,0.7108 -1.20838,1.17282 -2.1324,1.38606 l -0.95959,0.21325 c -1.1373,-1e-5 -1.88364,-0.63973 -2.23902,-1.91917 l -0.31986,-2.77212 0.10662,-2.87875 0.21324,-2.66551 0.95958,-7.25017 -8.9561,2.6655 -2.6655,0.42649 c -1.63485,10e-6 -3.02091,-0.74633 -4.15819,-2.23903 -0.99513,-1.42159 -1.49269,-2.98535 -1.49268,-4.69129 -1e-5,-0.92402 0.0355,-1.49266 0.10662,-1.70592 l 0.85296,-2.02579 5.75749,-9.38258 3.41185,-5.97073 3.51846,-6.50383 c 1.70591,-3.19856 5.47315,-10.91075 11.30175,-23.13659 l 4.58467,1.81254 c 0.28429,0.0712 0.49753,0.67533 0.63972,1.81255 l -6.39721,39.76934 1.81254,-0.63972 2.45226,-0.95958 1.91917,-0.31986 h 0.42648 l 0.42648,0.21324 c 0.35537,0.49758 0.53307,0.88852 0.5331,1.17282 m -8.31638,-27.18816 -1.27944,-0.85296 -3.19861,6.82369 -6.39721,12.79443 -3.19861,5.11777 -2.87874,5.22439 -0.31986,1.91917 c -1e-5,0.56866 0.0711,0.99514 0.21324,1.27944 l 0.74634,0.31986 1.38606,-0.31986 1.38607,-0.42648 8.74285,-2.55889 1.38607,-10.23554 1.70592,-9.91568 1.70592,-9.16934" />
  </g>
</svg>
